<svg width="196" height="102" viewBox="0 0 196 102" fill="none" xmlns="http://www.w3.org/2000/svg">
<path d="M15.3911 49.5507C11.7538 49.2814 8.40348 49.0689 5.00711 48.7591C4.06086 48.6728 2.46877 48.6893 2.09106 47.9979C1.67504 47.2365 3.34183 47.3123 4.4311 47.3526C10.299 47.5701 16.2201 47.8692 22.0948 48.0963C39.8294 48.7818 57.1152 48.8587 74.2624 48.7349C96.8636 48.5715 118.505 47.3257 140.414 46.378C151.99 45.8772 163.273 45.0375 175.374 45.1333C178.649 45.1601 182.096 45.4387 185.621 45.9616C191.601 46.8432 195.151 49.1032 194.847 51.8884C194.687 53.3633 194.785 54.9348 192.8 55.8459C191.713 56.3455 190.674 56.6915 188.659 55.5388C186.95 54.5609 185.149 54.4871 183.14 54.2029C175.918 53.1813 169.87 53.8792 164.403 54.5331C157.421 55.3683 150.106 55.9113 142.964 56.5394C134.596 57.2754 125.868 57.743 117.1 58.1283C106.225 58.607 94.8302 58.4514 84.0335 59.0218C80.8418 59.1903 77.2421 59.3726 73.1719 58.3309C73.1097 58.3169 73.0479 58.31 72.9916 58.3108C72.9353 58.3116 72.8859 58.32 72.8476 58.3353C70.8099 59.961 64.7649 57.2074 62.6871 58.8264C62.4694 58.9956 61.6482 59.0672 61.1884 58.9381C55.3471 57.2987 50.9682 58.5184 45.5145 57.6729C43.5541 57.3689 41.3885 57.1824 40.2094 57.9304C39.9973 58.0652 39.4061 58.1464 39.0247 58.0517C33.8577 56.7699 29.6497 57.837 24.4564 56.4671C24.2742 56.4146 24.0879 56.379 23.9086 56.3622C23.7292 56.3455 23.5605 56.3479 23.4123 56.3694C20.0574 57.5089 14.6204 54.5872 10.9554 55.4259C9.77806 55.6954 4.89303 52.8201 5.32813 51.9614C5.7791 51.0702 5.18489 50.9765 3.72529 50.7318C2.87283 50.5889 1.83905 50.4298 1.73774 49.8284C1.62866 49.1783 2.72255 49.3528 3.69203 49.4221C7.09935 49.6657 10.4895 49.8768 13.8755 50.082C14.5463 50.1231 15.3441 50.2098 15.3911 49.5507Z" fill="#F7CF6A"/>
</svg>
